<svg xmlns="http://www.w3.org/2000/svg" xmlns:xlink="http://www.w3.org/1999/xlink" version="1.1" id="&#1057;&#1083;&#1086;&#1081;_1" x="0px" y="0px" viewBox="0 0 100 100" enable-background="new 0 0 100 100" xml:space="preserve" height="100px" width="100px">
<g>
	<path d="M5,95h90V67.5H5V95z M30,90H9.3l8.2-8.2l5,5l3.1-3.1L30,88V90z M32.5,70h60v20h-60V70z M7.5,70H30v14.5l-4.4-4.4l-3.1,3.1   l-5-5l-10,10V70z"/>
	<path d="M5,63.8h90V36.3H5V63.8z M30,58.8H9.3l8.2-8.2l5,5l3.1-3.1l4.4,4.4V58.8z M32.5,38.8h60v20h-60V38.8z M7.5,38.8H30v14.5   l-4.4-4.4L22.5,52l-5-5l-10,10V38.8z"/>
	<path d="M5,32.5h90V5H5V32.5z M30,27.5H9.3l8.2-8.2l5,5l3.1-3.1l4.4,4.4V27.5z M32.5,7.5h60v20h-60V7.5z M7.5,7.5H30V22l-4.4-4.4   l-3.1,3.1l-5-5l-10,10V7.5z"/>
	<rect x="50" y="11.3" width="35" height="2.5"/>
	<rect x="40" y="16.3" width="45" height="2.5"/>
	<rect x="40" y="21.3" width="40" height="2.5"/>
	<rect x="50" y="42.5" width="35" height="2.5"/>
	<rect x="40" y="47.5" width="45" height="2.5"/>
	<rect x="40" y="52.5" width="40" height="2.5"/>
	<rect x="50" y="73.8" width="35" height="2.5"/>
	<rect x="40" y="78.8" width="45" height="2.5"/>
	<rect x="40" y="83.8" width="40" height="2.5"/>
	<path d="M12.5,8.8c-2.1,0-3.8,1.7-3.8,3.8s1.7,3.8,3.8,3.8s3.8-1.7,3.8-3.8S14.6,8.8,12.5,8.8z M12.5,13.8c-0.7,0-1.3-0.6-1.3-1.3   s0.6-1.3,1.3-1.3s1.3,0.6,1.3,1.3S13.2,13.8,12.5,13.8z"/>
	<path d="M12.5,71.3c-2.1,0-3.8,1.7-3.8,3.8s1.7,3.8,3.8,3.8s3.8-1.7,3.8-3.8S14.6,71.3,12.5,71.3z M12.5,76.3   c-0.7,0-1.3-0.6-1.3-1.3s0.6-1.3,1.3-1.3s1.3,0.6,1.3,1.3S13.2,76.3,12.5,76.3z"/>
	<path d="M12.5,40c-2.1,0-3.8,1.7-3.8,3.8s1.7,3.8,3.8,3.8s3.8-1.7,3.8-3.8S14.6,40,12.5,40z M12.5,45c-0.7,0-1.3-0.6-1.3-1.3   s0.6-1.3,1.3-1.3s1.3,0.6,1.3,1.3S13.2,45,12.5,45z"/>
</g>
</svg>