<svg xmlns="http://www.w3.org/2000/svg" xmlns:xlink="http://www.w3.org/1999/xlink" version="1.1" id="Layer_1" x="0px" y="0px" width="100px" height="100px" viewBox="0 0 100 100" enable-background="new 0 0 100 100" xml:space="preserve">
<path d="M50,5C25.148,5,5,25.148,5,50c0,24.854,20.148,45,45,45s45-20.146,45-45C95,25.148,74.852,5,50,5 M76.293,81.954  c-0.893-0.403-1.951-0.886-2.545-1.095c-2.623-0.93-5.33-1.644-8.06-2.174c-3.749-0.731-5.064-2.496-5.275-6.423  c-0.029-0.567-0.78-5.328-0.181-5.626c2.485-1.243,2.892-5.194,3.12-7.608c0.17-1.782,1.097-2.589,1.919-4.046  c0.896-1.593,1.329-3.395,1.814-5.142c0.358-1.278,0.991-3.405,0.752-4.725c-0.225-1.22-1.146-2.349-1.146-3.651  c0-1.673,0.648-3.444,0.829-5.119c0.283-2.584,0.236-5.2-0.277-7.754c-1.371-6.866-8.063-9.367-14.295-10.702  c-5.871-1.257-12.738,1.779-16.709,5.905c-1.628,1.696-3.627,3.825-3.941,6.258c-0.286,2.239-0.259,4.904,0.077,7.124  c0.176,1.167,0.278,2.347,0.429,3.516c0.123,0.934,0.802,1.818,0.549,2.76c-0.147,0.556-0.475,1.041-0.731,1.554  c-1.206,2.415,0.07,5.716,1.149,7.945c0.509,1.049,1.103,2.086,1.843,2.992c0.89,1.086,0.925,1.851,0.976,3.243  c0.091,2.461,0.803,6.601,3.285,7.84c0.602,0.301-0.259,4.669-0.29,5.236c-0.211,3.927,0.276,5.692-3.476,6.423  c-2.729,0.531-5.435,1.245-8.058,2.174c-1.005,0.355-2.58,0.967-3.828,1.505C14.712,74.77,8.6,63.09,8.6,50  C8.6,27.173,27.173,8.6,50,8.6S91.4,27.173,91.4,50C91.4,62.855,85.513,74.354,76.293,81.954"/>
</svg>