<svg xmlns:dc="http://purl.org/dc/elements/1.1/" xmlns:sodipodi="http://sodipodi.sourceforge.net/DTD/sodipodi-0.dtd" xmlns:inkscape="http://www.inkscape.org/namespaces/inkscape" xmlns:rdf="http://www.w3.org/1999/02/22-rdf-syntax-ns#" xmlns:svg="http://www.w3.org/2000/svg" xmlns:cc="http://creativecommons.org/ns#" xmlns:v="http://schemas.microsoft.com/visio/2003/SVGExtensions/" xmlns="http://www.w3.org/2000/svg" xmlns:xlink="http://www.w3.org/1999/xlink" version="1.1" id="Layer_1" inkscape:version="0.48.2 r9819" sodipodi:docname="Idea.svg" x="0px" y="0px" width="100px" height="100px" viewBox="0 0 100 100" enable-background="new 0 0 100 100" xml:space="preserve">
<defs>
	
	<v:userDefs>
		<v:ud v:nameU="msvThemeColors" v:val="VT0(36):26"/>
		<v:ud v:nameU="msvThemeEffects" v:val="VT0(16):26"/>
		<v:ud v:nameU="msvThemeOrder" v:val="VT0(0):26"/>
	</v:userDefs>
	<v:pageProperties v:shadowOffsetX="9" v:drawingUnits="0" v:shadowOffsetY="-9" v:pageScale="1" v:drawingScale="1">
		</v:pageProperties>
	<v:layer v:index="0" v:name="Flowchart"/>
	<v:custProps>
		
			<v:cp v:invis="false" v:prompt="" v:sortKey="" v:langID="1033" v:type="7" v:lbl="Cost" v:format="@" v:cal="0" v:ask="false" v:nameU="Cost">
			</v:cp>
		
			<v:cp v:invis="false" v:prompt="" v:sortKey="" v:langID="1033" v:type="2" v:lbl="Process Number" v:format="" v:cal="0" v:ask="false" v:nameU="ProcessNumber">
			</v:cp>
		
			<v:cp v:invis="false" v:prompt="" v:sortKey="" v:langID="1033" v:type="0" v:lbl="Owner" v:format="" v:cal="0" v:ask="false" v:nameU="Owner">
			</v:cp>
		
			<v:cp v:invis="false" v:prompt="" v:sortKey="" v:langID="1033" v:type="0" v:lbl="Function" v:format="" v:cal="0" v:ask="false" v:nameU="Function" v:val="VT4()">
			</v:cp>
		
			<v:cp v:invis="false" v:prompt="" v:sortKey="" v:langID="1033" v:type="5" v:lbl="Start Date" v:format="" v:cal="0" v:ask="false" v:nameU="StartDate">
			</v:cp>
		
			<v:cp v:invis="false" v:prompt="" v:sortKey="" v:langID="1033" v:type="5" v:lbl="End Date" v:format="" v:cal="0" v:ask="false" v:nameU="EndDate">
			</v:cp>
		
			<v:cp v:invis="false" v:prompt="" v:sortKey="" v:langID="1033" v:type="4" v:lbl="Status" v:format=";Not Started;In Progress;Completed;Deferred;Waiting on Input" v:cal="0" v:ask="false" v:nameU="Status" v:val="VT4()">
			</v:cp>
	</v:custProps>
	<v:userDefs>
		<v:ud v:nameU="AntiScale" v:val="VT0(1):26"/>
		<v:ud v:prompt="" v:nameU="visVersion" v:val="VT0(14):26"/>
		<v:ud v:prompt="" v:nameU="DefaultWidth" v:val="VT0(1):0"/>
		<v:ud v:prompt="" v:nameU="DefaultHeight" v:val="VT0(0.75):0"/>
		<v:ud v:prompt="" v:nameU="ResizeTxtHeight" v:val="VT0(0.75):0"/>
		<v:ud v:nameU="msvThemeColors" v:val="VT0(36):26"/>
		<v:ud v:nameU="msvThemeEffects" v:val="VT0(16):26"/>
	</v:userDefs>
</defs>
<sodipodi:namedview bordercolor="#666666" objecttolerance="10" pagecolor="#ffffff" guidetolerance="10" id="namedview21" borderopacity="1" inkscape:cy="104.98282" gridtolerance="10" inkscape:zoom="2.91" showgrid="false" inkscape:cx="50" inkscape:window-y="0" inkscape:window-maximized="0" inkscape:pageopacity="0" inkscape:window-x="0" inkscape:window-height="888" inkscape:current-layer="Layer_1" inkscape:window-width="1070" inkscape:pageshadow="2">
	</sodipodi:namedview>
<v:documentProperties v:viewMarkup="false" v:langID="1033">
	<v:userDefs>
		<v:ud v:nameU="msvNoAutoConnect" v:val="VT0(0):26"/>
	</v:userDefs>
</v:documentProperties>
<path d="M17.518,32.936c0.284,0,0.569-0.108,0.785-0.327c0.434-0.434,0.434-1.139,0-1.571l-3.28-3.281  c-0.435-0.434-1.137-0.434-1.57,0c-0.435,0.433-0.435,1.138,0,1.57l3.28,3.282C16.949,32.828,17.234,32.936,17.518,32.936z   M86.546,27.758c-0.433-0.434-1.134-0.434-1.569,0l-3.285,3.282c-0.432,0.433-0.432,1.138,0,1.571  c0.22,0.217,0.504,0.326,0.787,0.326c0.286,0,0.569-0.108,0.788-0.327l3.28-3.28C86.981,28.896,86.981,28.19,86.546,27.758z   M30.995,19.525c0.155,0.466,0.588,0.76,1.054,0.76c0.115,0,0.233-0.019,0.352-0.058c0.581-0.194,0.896-0.823,0.703-1.405  L31.463,13.9c-0.194-0.583-0.823-0.895-1.406-0.703c-0.581,0.195-0.897,0.824-0.703,1.406L30.995,19.525z M67.596,18.964  c0.117,0.039,0.233,0.058,0.352,0.058c0.465,0,0.899-0.294,1.058-0.761l1.637-4.92c0.194-0.583-0.122-1.211-0.703-1.406  c-0.583-0.196-1.212,0.121-1.403,0.703l-1.639,4.92C66.701,18.141,67.012,18.772,67.596,18.964z M49.988,15.449  c0.121,0,0.24-0.018,0.351-0.054c0.439-0.146,0.76-0.561,0.763-1.053l0.018-5.187c0.001-0.614-0.494-1.113-1.106-1.114  c-0.617-0.003-1.116,0.494-1.116,1.107l-0.019,5.187C48.876,14.951,49.372,15.449,49.988,15.449z M60.064,83.079v1.831  c0,0.539-0.436,0.97-0.972,0.97H41.531c-0.537,0-0.97-0.429-0.97-0.97v-1.831c0-0.535,0.434-0.973,0.97-0.973h17.562  C59.629,82.106,60.065,82.544,60.064,83.079z M43.072,88.237h14.479c-1.189,2.188-3.984,3.722-7.238,3.722  C47.056,91.959,44.263,90.425,43.072,88.237z M50.313,25.285c-14.788,0-26.774,11.604-26.774,26.391  c0,9.068,9.375,19.625,9.375,19.625c1.12,1.261,2.334,1.922,2.695,3.573l0.711,2.113c0.359,1.648,2.036,2.715,3.723,2.715h19.961  c1.687,0,3.41-1.055,3.828-2.688l0.791-1.953c0.417-1.638,1.681-2.281,2.817-3.533c0,0,9.646-10.653,9.646-19.852  C77.086,36.889,65.1,25.285,50.313,25.285z M64.933,36.039c-3.79-3.846-8.86-5.351-8.404-5.617c1.631-0.94,6.601,0.962,9.862,4.552  c3.588,3.942,6.511,9.656,4.753,9.813C70.802,44.819,68.85,40.013,64.933,36.039z M59.755,58.183  c-0.04,0.075-4.073,7.408-3.753,13.952c0.019,0.401-0.292,0.741-0.692,0.762c-0.014,0.002-0.025,0.002-0.037,0.002  c-0.385,0-0.706-0.304-0.725-0.692c-0.269-5.495,2.228-11.292,3.378-13.65h-2.64c-0.346,0-0.642-0.246-0.71-0.579l-1.01,2.226  c-0.14,0.305-0.471,0.478-0.795,0.415c-0.327-0.059-0.574-0.334-0.594-0.669l-0.081-1.283l-0.71,1.792  c-0.13,0.324-0.466,0.518-0.815,0.445c-0.341-0.065-0.588-0.364-0.588-0.715v-1.354l-0.658,1.489  c-0.137,0.311-0.476,0.489-0.803,0.421c-0.332-0.063-0.577-0.351-0.588-0.689l-0.079-2.26l-0.301,0.442  c-0.135,0.199-0.361,0.321-0.603,0.321h-2.537c2.774,5.094,3.21,13.208,3.228,13.577c0.019,0.402-0.288,0.742-0.689,0.764  c-0.399,0.042-0.745-0.288-0.764-0.69c-0.006-0.092-0.506-9.396-3.67-13.963c-0.155-0.224-0.173-0.513-0.047-0.753  c0.125-0.239,0.372-0.388,0.645-0.388h3.447l1.334-1.975c0.177-0.261,0.502-0.378,0.804-0.291c0.304,0.087,0.516,0.357,0.527,0.674  l0.046,1.318l0.771-1.745c0.137-0.313,0.476-0.488,0.816-0.421c0.337,0.072,0.576,0.37,0.576,0.714v1.004l0.504-1.271  c0.126-0.316,0.459-0.501,0.79-0.45c0.336,0.055,0.592,0.332,0.614,0.674l0.099,1.612l0.846-1.868  c0.135-0.296,0.452-0.462,0.771-0.418c0.321,0.047,0.573,0.301,0.614,0.622l0.25,1.823h3.199c0.257,0,0.494,0.137,0.626,0.359  C59.879,57.683,59.881,57.958,59.755,58.183z"/>
</svg>